<svg xmlns="http://www.w3.org/2000/svg" viewBox="0 0 54.07 68.3"><defs><style>.cls-1{fill:#a8cbdc;}.cls-2{fill:none;stroke:#231f20;stroke-miterlimit:10;stroke-width:0.88px;}.cls-3{fill:#62aecc;}.cls-4{fill:#00964b;}.cls-5{fill:#c19869;}.cls-6{fill:#5d6567;}.cls-7{fill:#231f20;}.cls-8{fill:#fff;}.cls-9{fill:#e08436;}.cls-10{fill:#641d34;}</style></defs><g id="Layer_2" data-name="Layer 2"><g id="Capa_1" data-name="Capa 1"><path class="cls-1" d="M48.62,48c0-1.39,0-2.77,0-4.16"/><path class="cls-2" d="M48.62,48c0-1.39,0-2.77,0-4.16"/><path class="cls-3" d="M48.61,43.88c0,1.39,0,2.77,0,4.16-.89,9-6.84,17.18-16.58,19.26a22.07,22.07,0,0,1-14.92-1.78A20.44,20.44,0,0,1,7.05,54.24a22.07,22.07,0,0,1-1.58-9.12A27.75,27.75,0,0,1,8,35.17,89.91,89.91,0,0,1,16.17,21.3,97.72,97.72,0,0,0,23.56,8.68a42.45,42.45,0,0,0,2.72-7c.13-.48.25-1.21.8-1.24s.67.7.8,1.14A59.58,59.58,0,0,0,34,15c2.42,4.16,5.29,8,7.82,12.11a47.45,47.45,0,0,1,6,12.86,22.13,22.13,0,0,1,.7,3.87"/><path class="cls-2" d="M48.61,43.88c0,1.39,0,2.77,0,4.16-.89,9-6.84,17.18-16.58,19.26a22.07,22.07,0,0,1-14.92-1.78A20.44,20.44,0,0,1,7.05,54.24a22.07,22.07,0,0,1-1.58-9.12A27.75,27.75,0,0,1,8,35.17,89.91,89.91,0,0,1,16.17,21.3,97.72,97.72,0,0,0,23.56,8.68a42.45,42.45,0,0,0,2.72-7c.13-.48.25-1.21.8-1.24s.67.7.8,1.14A59.58,59.58,0,0,0,34,15c2.42,4.16,5.29,8,7.82,12.11a47.45,47.45,0,0,1,6,12.86A22.13,22.13,0,0,1,48.61,43.88Z"/><path class="cls-4" d="M44.13,41.89a17,17,0,0,0-.55-3.08,38,38,0,0,0-4.81-10.23c-2-3.24-4.3-6.32-6.22-9.63a47.3,47.3,0,0,1-4.9-10.7c-.1-.35-.19-.93-.63-.91s-.54.61-.64,1a33.65,33.65,0,0,1-2.17,5.57,78,78,0,0,1-5.87,10,71.53,71.53,0,0,0-6.52,11,22.22,22.22,0,0,0-2,7.92,17.59,17.59,0,0,0,1.25,7.24,16.3,16.3,0,0,0,8,9A17.48,17.48,0,0,0,31,60.51c7.75-1.66,12.48-8.13,13.19-15.32h.11V41.88h-.12"/><path class="cls-5" d="M40.65,40.31a14.64,14.64,0,0,0-.44-2.45,29.91,29.91,0,0,0-3.84-8.14c-1.6-2.59-3.42-5-4.95-7.67a38,38,0,0,1-3.9-8.52c-.08-.28-.15-.74-.5-.72s-.43.48-.51.78A27.18,27.18,0,0,1,24.79,18a61.92,61.92,0,0,1-4.68,8,57.49,57.49,0,0,0-5.19,8.79,17.61,17.61,0,0,0-1.58,6.3,14.08,14.08,0,0,0,1,5.77A13,13,0,0,0,20.71,54a14,14,0,0,0,9.44,1.13,13.46,13.46,0,0,0,10.5-12.2h.09V40.31h-.09"/><path class="cls-6" d="M36.5,41.06A9.47,9.47,0,1,1,27,31.59a9.47,9.47,0,0,1,9.47,9.47"/><path class="cls-7" d="M34.6,41.06A7.57,7.57,0,1,1,27,33.5a7.57,7.57,0,0,1,7.57,7.56"/><path class="cls-8" d="M54.07,18.75a51.26,51.26,0,0,0-.5-6.43,42.22,42.22,0,0,0-1-5.1A2.78,2.78,0,0,0,50,5.13a20.44,20.44,0,0,0-4.28.34,26.53,26.53,0,0,0-9.09,3.46c-1,.61-1.92,1.28-2.85,2a24.14,24.14,0,0,0-3.42,3,.43.43,0,0,1-.36.15H24a.56.56,0,0,1-.34-.15c-.72-.66-1.4-1.38-2.15-2a29.56,29.56,0,0,0-5-3.45A26.58,26.58,0,0,0,9.9,5.84a24.05,24.05,0,0,0-5.67-.7A2.82,2.82,0,0,0,1.48,7.26c-.1.4-.21.8-.29,1.2C.93,9.82.64,11.17.43,12.53a40.46,40.46,0,0,0-.42,5,45.2,45.2,0,0,0,.45,7.62,46.78,46.78,0,0,0,1,5.09,2.82,2.82,0,0,0,2.78,2.12,26.28,26.28,0,0,0,3.65-.29,26,26,0,0,0,5.27-1.44,28.94,28.94,0,0,0,6.49-3.59,28,28,0,0,0,4.06-3.55.42.42,0,0,1,.29-.14h6a.45.45,0,0,1,.31.14A28.92,28.92,0,0,0,34,26.8a30.7,30.7,0,0,0,3.5,2.26,27,27,0,0,0,5.38,2.27,24.22,24.22,0,0,0,6.87,1,2.79,2.79,0,0,0,2.71-1.95c.22-.75.4-1.51.55-2.28s.34-1.85.48-2.79.27-1.93.35-2.9c.09-1.23.13-2.46.19-3.69"/><path class="cls-7" d="M54.07,18.75C54,20,54,21.21,53.88,22.44c-.08,1-.21,1.94-.35,2.9s-.29,1.87-.48,2.79-.33,1.53-.55,2.28a2.79,2.79,0,0,1-2.71,1.95,24.22,24.22,0,0,1-6.87-1,27,27,0,0,1-5.38-2.27A30.7,30.7,0,0,1,34,26.8a28.92,28.92,0,0,1-3.71-3.28.45.45,0,0,0-.31-.14H24a.42.42,0,0,0-.29.14,28,28,0,0,1-4.06,3.55,28.94,28.94,0,0,1-6.49,3.59A26,26,0,0,1,7.91,32.1a26.28,26.28,0,0,1-3.65.29,2.82,2.82,0,0,1-2.78-2.12,46.78,46.78,0,0,1-1-5.09A45.2,45.2,0,0,1,0,17.56a40.46,40.46,0,0,1,.42-5c.21-1.36.5-2.71.76-4.07.08-.4.19-.8.29-1.2A2.82,2.82,0,0,1,4.23,5.14a24.05,24.05,0,0,1,5.67.7,26.58,26.58,0,0,1,6.61,2.62,29.56,29.56,0,0,1,5,3.45c.75.64,1.43,1.36,2.15,2a.56.56,0,0,0,.34.15h6a.43.43,0,0,0,.36-.15,24.14,24.14,0,0,1,3.42-3c.94-.67,1.88-1.34,2.85-2a26.53,26.53,0,0,1,9.09-3.46A20.44,20.44,0,0,1,50,5.13a2.78,2.78,0,0,1,2.54,2.09,42.22,42.22,0,0,1,1,5.1,51.26,51.26,0,0,1,.5,6.43m-31,0h0v-3.9a.33.33,0,0,0-.1-.23c-.35-.36-.7-.72-1.06-1.06A29.4,29.4,0,0,0,16.45,9.5,25.3,25.3,0,0,0,9.66,6.77c-1.08-.25-2.19-.38-3.28-.58-.23,0-.37,0-.42.26-.14.54-.31,1.08-.41,1.63-.25,1.35-.51,2.71-.7,4.08-.17,1.22-.28,2.46-.36,3.69a43.72,43.72,0,0,0,0,5.49c.09,1.3.17,2.61.35,3.9.22,1.56.53,3.12.82,4.67.08.43.23.85.35,1.28,0,.13.12.17.26.16A25.35,25.35,0,0,0,10,30.68a24.45,24.45,0,0,0,5.31-2.06c1-.51,1.89-1.06,2.8-1.65.72-.47,1.39-1,2.07-1.53A21,21,0,0,0,23,22.88a.34.34,0,0,0,.09-.24c0-1.29,0-2.58,0-3.88m7.84-.05h0c0,1.28,0,2.56,0,3.84a.48.48,0,0,0,.1.31c.39.41.78.82,1.2,1.21a30,30,0,0,0,4.6,3.48,27.38,27.38,0,0,0,5.81,2.7,24.84,24.84,0,0,0,5,1.05c.34,0,.37,0,.47-.3.15-.52.3-1.05.4-1.58.28-1.61.57-3.22.78-4.84.17-1.35.27-2.71.31-4.06s0-2.93,0-4.38-.22-3.07-.43-4.59-.53-2.91-.82-4.36a5.53,5.53,0,0,0-.28-.9.27.27,0,0,0-.22-.13c-.61.07-1.22.14-1.82.24a23.52,23.52,0,0,0-4.35,1.18,27.32,27.32,0,0,0-4.13,1.95A26.39,26.39,0,0,0,34,11.86a23.89,23.89,0,0,0-2.88,2.62.6.6,0,0,0-.23.43c0,1.27,0,2.54,0,3.8M5,31.42A51.79,51.79,0,0,1,5,6.1H4.21A1.85,1.85,0,0,0,2.4,7.49,36,36,0,0,0,1.33,13c-.18,1.52-.28,3.05-.35,4.57a34.26,34.26,0,0,0,.19,5.55c.14,1.26.32,2.52.54,3.76C1.9,28,2.17,29,2.4,30a1.83,1.83,0,0,0,.75,1.07A2.77,2.77,0,0,0,5,31.42m44,0h.84a1.9,1.9,0,0,0,1.78-1.35,42.1,42.1,0,0,0,1.19-6.49A38.13,38.13,0,0,0,53.07,18c-.06-1.44-.16-2.87-.29-4.3-.09-1-.24-1.93-.42-2.89-.22-1.15-.44-2.31-.76-3.43A2,2,0,0,0,49,6.12a51.91,51.91,0,0,1,0,25.29M30,15.06H26.58v2.85c0,.12,0,.23,0,.35a.39.39,0,0,1-.34.36.55.55,0,0,1-.43-.12.63.63,0,0,1-.16-.42c0-.93,0-1.85,0-2.77v-.25H24.05v7.37H30Z"/><path class="cls-9" d="M23.09,18.76v3.88a.36.36,0,0,1-.09.24,21,21,0,0,1-2.78,2.56c-.68.53-1.35,1.06-2.07,1.53-.91.59-1.85,1.14-2.8,1.65A24.45,24.45,0,0,1,10,30.68a25.35,25.35,0,0,1-3.78.67c-.14,0-.22,0-.26-.16-.12-.43-.27-.85-.35-1.28-.29-1.55-.6-3.11-.82-4.67-.18-1.29-.26-2.6-.35-3.9a41.91,41.91,0,0,1,0-5.49c.08-1.23.19-2.47.36-3.69.19-1.37.45-2.73.7-4.08.1-.55.27-1.09.41-1.63,0-.23.19-.3.42-.26,1.09.2,2.2.33,3.28.58A25.3,25.3,0,0,1,16.45,9.5a29.4,29.4,0,0,1,5.48,4.07c.36.34.71.7,1.06,1a.37.37,0,0,1,.1.24v3.9ZM19,19.21h2.61a.48.48,0,1,0,0-1H16.42a.49.49,0,0,0-.53.49.48.48,0,0,0,.54.47H19m-1.62,4.58a.9.9,0,0,0,.23-.08l.86-.43,3.33-1.68a.49.49,0,0,0,.29-.7c-.15-.26-.42-.3-.74-.14L18.77,22l-1.68.86a.44.44,0,0,0-.25.54.49.49,0,0,0,.51.35m0-10.08a.5.5,0,0,0-.52.37.48.48,0,0,0,.27.53l1.39.71,2.92,1.47a.44.44,0,0,0,.55-.08.4.4,0,0,0,.1-.52.83.83,0,0,0-.37-.32L17.6,13.78a1,1,0,0,0-.21-.07"/><path class="cls-9" d="M30.93,18.71c0-1.26,0-2.53,0-3.8a.58.58,0,0,1,.23-.43A23.89,23.89,0,0,1,34,11.86a26.39,26.39,0,0,1,3.45-2.33,27.32,27.32,0,0,1,4.13-1.95A23.52,23.52,0,0,1,46,6.4c.6-.1,1.21-.17,1.82-.24a.27.27,0,0,1,.22.13,5.53,5.53,0,0,1,.28.9c.29,1.45.62,2.9.82,4.36s.35,3,.43,4.59.09,2.92,0,4.38-.14,2.72-.31,4.06c-.21,1.62-.5,3.23-.78,4.84-.1.53-.25,1.06-.4,1.58-.1.34-.13.34-.47.3a24.84,24.84,0,0,1-5-1.05,27.38,27.38,0,0,1-5.81-2.7,29.41,29.41,0,0,1-4.6-3.48c-.42-.39-.81-.8-1.2-1.21a.48.48,0,0,1-.1-.31c0-1.28,0-2.56,0-3.84Zm4.09.5h2.56c.34,0,.56-.19.56-.47a.5.5,0,0,0-.55-.49H32.47a.49.49,0,1,0,0,1H35m2.15-5a.49.49,0,0,0-.75-.43l-1.52.77L32.24,15.9a.73.73,0,0,0-.31.29.41.41,0,0,0,.1.52.46.46,0,0,0,.59.06l2.18-1.1,2.09-1.06a.48.48,0,0,0,.28-.4m-.43,9.6a1.09,1.09,0,0,0,.25-.1.46.46,0,0,0-.08-.83l-1.4-.71-2.9-1.46a.47.47,0,0,0-.47.82l.2.11q2.07,1,4.15,2.09a1.47,1.47,0,0,0,.25.08"/><path class="cls-10" d="M5,31.42a2.77,2.77,0,0,1-1.87-.31A1.83,1.83,0,0,1,2.4,30c-.23-1-.5-2.08-.68-3.14-.23-1.24-.41-2.5-.55-3.75A34.43,34.43,0,0,1,1,17.59c.08-1.52.17-3.05.35-4.57A36,36,0,0,1,2.4,7.49,1.85,1.85,0,0,1,4.21,6.1H5A52,52,0,0,0,5,31.42"/><path class="cls-10" d="M49,31.41A51.91,51.91,0,0,0,49,6.12,2,2,0,0,1,51.6,7.39c.32,1.12.54,2.28.76,3.43.18.95.33,1.92.42,2.89.13,1.43.23,2.87.29,4.3a38.07,38.07,0,0,1-.25,5.55A41.76,41.76,0,0,1,51.63,30a1.92,1.92,0,0,1-1.78,1.37H49"/><path class="cls-10" d="M30,15.06v7.37H24.05V15.06h1.58v.25c0,.92,0,1.84,0,2.77a.63.63,0,0,0,.16.42.55.55,0,0,0,.43.12.39.39,0,0,0,.34-.36c0-.12,0-.23,0-.35V15.06Z"/><path class="cls-7" d="M19,19.21H16.43a.48.48,0,0,1-.54-.47.49.49,0,0,1,.53-.49h5.17a.48.48,0,1,1,0,1H19"/><path class="cls-7" d="M17.35,23.79a.49.49,0,0,1-.51-.35.44.44,0,0,1,.25-.54L18.78,22l2.54-1.28c.32-.16.59-.12.74.14a.49.49,0,0,1-.29.7l-3.33,1.68-.86.43a.9.9,0,0,1-.23.08"/><path class="cls-7" d="M17.39,13.71a1,1,0,0,1,.21.07l4.13,2.09a.83.83,0,0,1,.37.32.4.4,0,0,1-.1.52.44.44,0,0,1-.55.08l-2.92-1.47-1.39-.71a.48.48,0,0,1-.27-.53.5.5,0,0,1,.52-.37"/><path class="cls-7" d="M35,19.21H32.48a.49.49,0,1,1,0-1h5.12a.5.5,0,0,1,.55.49c0,.28-.22.47-.56.47H35"/><path class="cls-7" d="M37.17,14.21a.46.46,0,0,1-.28.4L34.8,15.67l-2.18,1.1a.47.47,0,0,1-.59-.06.41.41,0,0,1-.1-.52.73.73,0,0,1,.31-.29l2.66-1.35,1.52-.77a.49.49,0,0,1,.75.43"/><path class="cls-7" d="M36.74,23.81a1.47,1.47,0,0,1-.25-.08q-2.09-1-4.15-2.09l-.2-.11a.47.47,0,0,1,.47-.82l2.9,1.46,1.4.71a.46.46,0,0,1,.08.83,1.09,1.09,0,0,1-.25.1"/><path class="cls-8" d="M27,36.22V34.78a6.28,6.28,0,0,0-6.28,6.28h1.44A4.84,4.84,0,0,1,27,36.22"/></g></g></svg>